<svg width="76" height="12" viewBox="0 0 76 12" fill="none" xmlns="http://www.w3.org/2000/svg">
<path d="M7.288 2.684V1.2H0.288V11H7.456V9.516H1.94V6.814H6.728V5.33H1.94V2.684H7.288ZM11.0575 11V0.611999H9.4475V11H11.0575ZM16.5724 3.496C14.3604 3.51 12.8064 5.036 12.8064 7.29C12.8064 9.53 14.3184 11.056 16.6144 11.056C17.9024 11.056 18.9664 10.594 19.6944 9.796L18.8404 8.886C18.2944 9.446 17.5524 9.754 16.7404 9.754C15.5644 9.754 14.6824 9.04 14.4304 7.892H20.0584C20.2544 5.204 19.1904 3.496 16.5724 3.496ZM14.4024 6.716C14.5844 5.526 15.4104 4.784 16.5864 4.784C17.8044 4.784 18.6024 5.512 18.6584 6.716H14.4024ZM24.7889 3.496C22.5769 3.496 21.0369 5.036 21.0369 7.29C21.0369 9.53 22.5769 11.056 24.7889 11.056C26.2029 11.056 27.2809 10.552 27.9529 9.67L27.0569 8.774C26.5529 9.362 25.7969 9.67 24.8589 9.67C23.5709 9.67 22.6469 8.704 22.6469 7.29C22.6469 5.876 23.5709 4.91 24.8589 4.91C25.7549 4.896 26.4689 5.218 26.9869 5.75L27.8689 4.714C27.1829 3.93 26.1329 3.496 24.7889 3.496ZM33.4472 9.292C33.0132 9.502 32.6632 9.614 32.3272 9.614C31.8232 9.614 31.5292 9.376 31.5292 8.606V5.036H33.7272V3.832H31.5292V1.788H29.9332V3.832H28.8832V5.036H29.9332V8.9C29.9332 10.426 30.8992 11.07 32.0192 11.07C32.6492 11.07 33.2652 10.874 33.8532 10.524L33.4472 9.292ZM36.9504 3.552H35.3404V11H36.9504V7.108C37.0764 5.834 38.0284 4.952 39.5264 5.036V3.496C38.3504 3.496 37.4544 4.028 36.9504 5.036V3.552ZM44.0422 3.496C41.7322 3.496 40.1502 5.022 40.1502 7.276C40.1502 9.516 41.7322 11.056 44.0422 11.056C46.3382 11.056 47.9202 9.516 47.9202 7.276C47.9202 5.022 46.3382 3.496 44.0422 3.496ZM44.0422 4.882C45.3722 4.882 46.3102 5.862 46.3102 7.29C46.3102 8.732 45.3722 9.712 44.0422 9.712C42.6982 9.712 41.7602 8.732 41.7602 7.29C41.7602 5.862 42.6982 4.882 44.0422 4.882ZM53.9542 3.496C52.6942 3.496 51.7422 3.944 51.2102 4.98V3.552H49.6002V11H51.2102V7.038C51.3222 5.876 52.0922 5.022 53.3242 5.008C54.4442 5.008 55.1162 5.694 55.1162 6.814V11H56.7262V6.366C56.7262 4.588 55.6902 3.496 53.9542 3.496ZM59.6814 0.444C59.1494 0.444 58.7434 0.85 58.7434 1.424C58.7434 1.984 59.1494 2.39 59.6814 2.39C60.2134 2.39 60.6194 1.984 60.6194 1.424C60.6194 0.85 60.2134 0.444 59.6814 0.444ZM60.4794 11V3.552H58.8834V11H60.4794ZM65.9139 3.496C63.7019 3.496 62.1619 5.036 62.1619 7.29C62.1619 9.53 63.7019 11.056 65.9139 11.056C67.3279 11.056 68.4059 10.552 69.0779 9.67L68.1819 8.774C67.6779 9.362 66.9219 9.67 65.9839 9.67C64.6959 9.67 63.7719 8.704 63.7719 7.29C63.7719 5.876 64.6959 4.91 65.9839 4.91C66.8799 4.896 67.5939 5.218 68.1119 5.75L68.9939 4.714C68.3079 3.93 67.2579 3.496 65.9139 3.496ZM72.9902 3.482C71.5622 3.482 70.2462 4.126 70.2462 5.638C70.2322 8.326 74.1522 7.472 74.1522 8.998C74.1522 9.558 73.6202 9.796 72.9342 9.796C72.1222 9.796 71.0862 9.446 70.4422 8.872L69.8682 10.02C70.6102 10.692 71.7722 11.056 72.8642 11.056C74.3622 11.056 75.7202 10.37 75.7202 8.844C75.7342 6.142 71.7722 6.884 71.7722 5.512C71.7722 4.98 72.2342 4.77 72.8642 4.77C73.5222 4.77 74.3482 5.022 75.0062 5.428L75.5942 4.238C74.9222 3.762 73.9282 3.482 72.9902 3.482Z" fill="#2C2C2C"/>
</svg>
