<svg width="372" height="108" viewBox="0 0 372 108" fill="none" xmlns="http://www.w3.org/2000/svg">
<path fill-rule="evenodd" clip-rule="evenodd" d="M0.601961 73.8301C0.601961 73.8301 17.6783 73.5918 39.3537 54.5785C61.0291 35.5652 108.648 56.1597 118.352 56.1597C128.055 56.1597 136.571 55.4658 156.008 36.4718C175.445 17.4778 185.423 10.3251 212.567 31.1094C239.712 51.8936 233.925 47.7824 233.925 47.7824C233.925 47.7824 250.687 55.4393 265.736 40.8397C280.784 26.2401 286.284 15.5959 286.284 15.5959C286.284 15.5959 299.465 -4.83453 324.982 1.49864C350.499 7.83182 371.297 11.074 371.297 11.074V81.079C371.297 81.079 373.063 108 363.923 108C354.784 108 17.605 108 7.58548 108C-2.43409 108 0.601961 73.8301 0.601961 73.8301Z" fill="url(#paint0_linear)"/>
<defs>
<linearGradient id="paint0_linear" x1="39.4421" y1="22.9816" x2="39.4421" y2="108" gradientUnits="userSpaceOnUse">
<stop stop-color="#B7B1F7" stop-opacity="0.999563"/>
<stop offset="1" stop-color="white"/>
</linearGradient>
</defs>
</svg>
