<svg width="85" height="11" viewBox="0 0 85 11" fill="none" xmlns="http://www.w3.org/2000/svg">
<path d="M4.256 2.496C2.044 2.51 0.49 4.036 0.49 6.29C0.49 8.53 2.002 10.056 4.298 10.056C5.586 10.056 6.65 9.594 7.378 8.796L6.524 7.886C5.978 8.446 5.236 8.754 4.424 8.754C3.248 8.754 2.366 8.04 2.114 6.892H7.742C7.938 4.204 6.874 2.496 4.256 2.496ZM2.086 5.716C2.268 4.526 3.094 3.784 4.27 3.784C5.488 3.784 6.286 4.512 6.342 5.716H2.086ZM13.8585 0.158C10.9605 0.158 8.70647 2.3 8.70647 5.086C8.70647 7.9 10.9325 10.07 13.8025 10.07C15.1885 10.07 16.6025 9.44 17.5965 8.46L16.6165 7.368C15.8745 8.082 14.8665 8.53 13.8865 8.53C11.9265 8.53 10.3865 7.004 10.3865 5.072C10.3865 3.14 11.9265 1.628 13.8865 1.628C14.8805 1.628 15.9025 2.104 16.6165 2.874L17.5825 1.67C16.6305 0.731999 15.2445 0.158 13.8585 0.158ZM22.1691 2.496C19.8591 2.496 18.2771 4.022 18.2771 6.276C18.2771 8.516 19.8591 10.056 22.1691 10.056C24.4651 10.056 26.0471 8.516 26.0471 6.276C26.0471 4.022 24.4651 2.496 22.1691 2.496ZM22.1691 3.882C23.4991 3.882 24.4371 4.862 24.4371 6.29C24.4371 7.732 23.4991 8.712 22.1691 8.712C20.8251 8.712 19.8871 7.732 19.8871 6.29C19.8871 4.862 20.8251 3.882 22.1691 3.882ZM37.4431 2.496C36.0851 2.496 35.0911 3.042 34.6151 4.288C34.2651 3.154 33.3551 2.496 32.0251 2.496C30.7931 2.496 29.8411 2.944 29.3231 3.994V2.552H27.7271V10H29.3231V6.318C29.3231 5.016 30.1071 4.036 31.3951 3.994C32.4871 3.994 33.1451 4.68 33.1451 5.814V10H34.7551V6.318C34.7551 5.016 35.5251 4.036 36.7991 3.994C37.8911 3.994 38.5631 4.68 38.5631 5.814V10H40.1731V5.366C40.1731 3.588 39.1511 2.496 37.4431 2.496ZM52.0447 2.496C50.6867 2.496 49.6927 3.042 49.2167 4.288C48.8667 3.154 47.9567 2.496 46.6267 2.496C45.3947 2.496 44.4427 2.944 43.9247 3.994V2.552H42.3287V10H43.9247V6.318C43.9247 5.016 44.7087 4.036 45.9967 3.994C47.0887 3.994 47.7467 4.68 47.7467 5.814V10H49.3567V6.318C49.3567 5.016 50.1267 4.036 51.4007 3.994C52.4927 3.994 53.1647 4.68 53.1647 5.814V10H54.7747V5.366C54.7747 3.588 53.7527 2.496 52.0447 2.496ZM59.9962 2.496C57.7842 2.51 56.2302 4.036 56.2302 6.29C56.2302 8.53 57.7422 10.056 60.0382 10.056C61.3262 10.056 62.3902 9.594 63.1182 8.796L62.2642 7.886C61.7182 8.446 60.9762 8.754 60.1642 8.754C58.9882 8.754 58.1062 8.04 57.8542 6.892H63.4822C63.6782 4.204 62.6142 2.496 59.9962 2.496ZM57.8262 5.716C58.0082 4.526 58.8342 3.784 60.0102 3.784C61.2282 3.784 62.0262 4.512 62.0822 5.716H57.8262ZM66.7707 2.552H65.1607V10H66.7707V6.108C66.8967 4.834 67.8487 3.952 69.3467 4.036V2.496C68.1707 2.496 67.2747 3.028 66.7707 4.036V2.552ZM73.7225 2.496C71.5105 2.496 69.9705 4.036 69.9705 6.29C69.9705 8.53 71.5105 10.056 73.7225 10.056C75.1365 10.056 76.2145 9.552 76.8865 8.67L75.9905 7.774C75.4865 8.362 74.7305 8.67 73.7925 8.67C72.5045 8.67 71.5805 7.704 71.5805 6.29C71.5805 4.876 72.5045 3.91 73.7925 3.91C74.6885 3.896 75.4025 4.218 75.9205 4.75L76.8025 3.714C76.1165 2.93 75.0665 2.496 73.7225 2.496ZM81.338 2.496C79.126 2.51 77.572 4.036 77.572 6.29C77.572 8.53 79.084 10.056 81.38 10.056C82.668 10.056 83.732 9.594 84.46 8.796L83.606 7.886C83.06 8.446 82.318 8.754 81.506 8.754C80.33 8.754 79.448 8.04 79.196 6.892H84.824C85.02 4.204 83.956 2.496 81.338 2.496ZM79.168 5.716C79.35 4.526 80.176 3.784 81.352 3.784C82.57 3.784 83.368 4.512 83.424 5.716H79.168Z" fill="#7E72F2"/>
</svg>
