<svg width="62" height="62" viewBox="0 0 62 62" fill="none" xmlns="http://www.w3.org/2000/svg">
<path fill-rule="evenodd" clip-rule="evenodd" d="M31 62C48.1209 62 62 48.1208 62 31C62 13.8792 48.1209 0 31 0C13.8792 0 3.05176e-05 13.8792 3.05176e-05 31C3.05176e-05 48.1208 13.8792 62 31 62Z" fill="#D5D1FB"/>
<path d="M37 42V39.6667C37 37.0893 34.7615 35 32 35H22C19.2386 35 17 37.0893 17 39.6667V42" stroke="#7E72F2" stroke-width="2" stroke-linecap="round" stroke-linejoin="round"/>
<path fill-rule="evenodd" clip-rule="evenodd" d="M27 30C29.7615 30 32 27.7614 32 25C32 22.2386 29.7615 20 27 20C24.2386 20 22 22.2386 22 25C22 27.7614 24.2386 30 27 30Z" stroke="#7E72F2" stroke-width="2" stroke-linecap="round" stroke-linejoin="round"/>
<path d="M45 42V39.615C44.9982 37.4412 43.3534 35.5434 41 35" stroke="#7E72F2" stroke-width="2" stroke-linecap="round" stroke-linejoin="round"/>
<path d="M36 20C38.3538 20.5263 40 22.3783 40 24.5C40 26.6217 38.3538 28.4737 36 29" stroke="#7E72F2" stroke-width="2" stroke-linecap="round" stroke-linejoin="round"/>
</svg>
