<svg width="62" height="62" viewBox="0 0 62 62" fill="none" xmlns="http://www.w3.org/2000/svg">
<path fill-rule="evenodd" clip-rule="evenodd" d="M31 62C48.1208 62 62 48.1208 62 31C62 13.8792 48.1208 0 31 0C13.8792 0 0 13.8792 0 31C0 48.1208 13.8792 62 31 62Z" fill="#FFDFC2"/>
<path fill-rule="evenodd" clip-rule="evenodd" d="M23.6667 19L20 24V41.5C20 42.8807 21.0944 44 22.4444 44H39.5556C40.9056 44 42 42.8807 42 41.5V24L38.3333 19H23.6667Z" stroke="#FF9F43" stroke-width="2" stroke-linecap="round" stroke-linejoin="round"/>
<path d="M20 24.5H42" stroke="#FF9F43" stroke-width="2" stroke-linecap="round" stroke-linejoin="round"/>
<path d="M36 29C36 31.7614 33.7614 34 31 34C28.2386 34 26 31.7614 26 29" stroke="#FF9F43" stroke-width="2" stroke-linecap="round" stroke-linejoin="round"/>
</svg>
