<svg width="372" height="87" viewBox="0 0 372 87" fill="none" xmlns="http://www.w3.org/2000/svg">
<path fill-rule="evenodd" clip-rule="evenodd" d="M0.656921 52.8823C0.656921 52.8823 14.47 50.745 25.299 34.3385C36.1279 17.9321 44.888 8.552 44.888 8.552C44.888 8.552 63.9723 -10.552 76.509 8.552C89.0457 27.656 100.298 47.7254 100.298 47.7254C100.298 47.7254 110.067 64.2109 114.32 69.015C118.572 73.8192 129.747 80.4108 142.768 58.2427C155.789 36.0746 166.336 16.7098 166.336 16.7098C166.336 16.7098 185.469 -13.959 199.437 8.552C213.404 31.063 229.209 66.3679 229.209 66.3679C229.209 66.3679 247.145 99.7312 268.275 71.095C289.405 42.4588 293.794 38.9174 293.794 38.9174C293.794 38.9174 307.141 24.8508 325.294 37.0538C336.717 45.429 344.684 60.3523 369.921 73.6048C372.737 76.2677 372.39 83.6577 366.924 85.8859C361.458 88.1141 9.64119 85.8859 9.64119 85.8859C9.64119 85.8859 0.656921 86.8651 0.656921 78.9801C0.656921 71.095 0.656921 52.8823 0.656921 52.8823Z" fill="url(#paint0_linear)"/>
<defs>
<linearGradient id="paint0_linear" x1="0.656921" y1="-1" x2="0.656921" y2="87" gradientUnits="userSpaceOnUse">
<stop stop-color="#FFC089"/>
<stop offset="1" stop-color="white"/>
</linearGradient>
</defs>
</svg>
